<svg width="50" height="30" viewBox="0 0 50 30" fill="none" xmlns="http://www.w3.org/2000/svg">
<path d="M14.1026 10.8517C14.1026 11.4768 14.1527 11.9769 14.2777 12.4019C14.4027 12.702 14.5777 13.102 14.8028 13.5521C14.9028 13.6521 14.9278 13.8021 14.9278 13.9272C14.9278 14.1022 14.8278 14.2522 14.6027 14.4272L13.5526 15.1274C13.4025 15.2274 13.2525 15.2774 13.1275 15.2774C12.9525 15.2774 12.8024 15.1774 12.6274 15.0273C12.4024 14.7773 12.2024 14.5273 12.0273 14.2522C11.8773 13.9772 11.7023 13.6521 11.5272 13.2771C10.227 14.8023 8.60179 15.5774 6.62648 15.5774C5.22627 15.5774 4.12609 15.1774 3.30097 14.3772C2.50084 13.5771 2.07578 12.5019 2.07578 11.1517C2.07578 9.77652 2.57585 8.65135 3.57601 7.75121C4.60117 6.90108 5.95138 6.451 7.65164 6.451C8.22673 6.451 8.75182 6.50101 9.42692 6.60103C10.002 6.67604 10.6771 6.80106 11.3272 6.95108V5.7509C11.3272 4.4757 11.0772 3.65057 10.5521 3.07548C10.002 2.5504 9.12687 2.32536 7.85167 2.32536C7.25158 2.32536 6.65149 2.40037 6.05139 2.52539C5.4263 2.67542 4.8262 2.85044 4.25111 3.10048C3.97607 3.2005 3.75104 3.27551 3.67602 3.30051C3.55101 3.35052 3.47599 3.35052 3.40098 3.35052C3.17595 3.35052 3.05093 3.2005 3.05093 2.85044V2.02532C3.05093 1.77528 3.07593 1.57525 3.17595 1.45023C3.25096 1.32521 3.40098 1.22519 3.62602 1.15018C4.22611 0.800125 4.90122 0.550085 5.72634 0.350054C6.57457 0.125194 7.44927 0.0158576 8.32675 0.0250045C10.3021 0.0250045 11.7523 0.475074 12.6774 1.37521C13.6026 2.27535 14.0526 3.65057 14.0526 5.47585V10.8517H14.1026M7.3516 13.4021C7.90168 13.4021 8.45177 13.3021 9.05186 13.102C9.65196 12.902 10.177 12.527 10.6271 12.0269C10.9022 11.7018 11.1022 11.3518 11.2522 10.9517C11.2522 10.5516 11.3772 10.0766 11.3772 9.50148V8.82637C10.8771 8.65135 10.3771 8.65135 9.82698 8.52633C9.312 8.4697 8.79473 8.43632 8.27674 8.42631C7.15157 8.42631 6.35144 8.65135 5.80136 9.10142C5.25127 9.55149 5.00123 10.1766 5.00123 11.0017C5.00123 11.8018 5.17626 12.4019 5.60132 12.777C6.00139 13.2021 6.57648 13.4021 7.3516 13.4021M20.7037 15.1774C20.4614 15.1867 20.2207 15.1351 20.0036 15.0273C19.9286 14.9023 19.8035 14.6773 19.7035 14.3772L15.8029 1.52524C15.7029 1.15018 15.6529 0.975152 15.6529 0.850133C15.6529 0.57509 15.7779 0.425066 16.053 0.425066H17.6782C18.0033 0.425066 18.2283 0.475075 18.3283 0.600094C18.4783 0.70011 18.5783 0.925144 18.6784 1.25019L21.4538 12.2519L24.0542 1.25019C24.1292 0.925144 24.2292 0.70011 24.3792 0.600094C24.5043 0.500078 24.7293 0.425066 25.0043 0.425066H26.3796C26.6796 0.425066 26.9046 0.475075 27.0297 0.600094C27.1547 0.70011 27.2797 0.925144 27.3547 1.25019L30.0051 12.4019L32.8556 1.25019C32.9556 0.925144 33.0806 0.70011 33.1806 0.600094C33.3306 0.500078 33.5307 0.425066 33.8307 0.425066H35.381C35.656 0.425066 35.806 0.57509 35.806 0.850133C35.806 0.925144 35.781 1.02516 35.756 1.15018C35.756 1.15018 35.706 1.35021 35.656 1.52524L31.6304 14.3772C31.5304 14.7273 31.4303 14.9023 31.2553 15.0273C31.1553 15.1274 30.9303 15.2024 30.6552 15.2024H29.23C28.905 15.2024 28.7549 15.1524 28.5549 15.0273C28.3868 14.8491 28.2814 14.6208 28.2549 14.3772L25.6795 3.65057L23.104 14.3522C23.029 14.6773 22.929 14.9023 22.804 15.0273C22.598 15.1411 22.3637 15.1932 22.1289 15.1774H20.7037M42.082 15.6274C41.2569 15.6274 40.3317 15.5274 39.5066 15.3274C38.6815 15.1274 38.0314 14.9023 37.6063 14.6773C37.3888 14.5733 37.2064 14.4082 37.0812 14.2022C37.0126 14.0623 36.9783 13.908 36.9812 13.7521V12.902C36.9812 12.552 37.1062 12.4019 37.3563 12.4019H37.6563C37.7563 12.4019 37.9064 12.527 38.0814 12.602C38.6315 12.852 39.2566 13.052 39.9067 13.1771C40.5818 13.3021 41.2569 13.3771 41.882 13.3771C42.9321 13.3771 43.7573 13.2021 44.3074 12.827C44.8824 12.4019 45.1825 11.9269 45.1825 11.2518C45.1825 10.7767 45.0075 10.4016 44.7324 10.0766C44.4324 9.77652 43.8573 9.47647 43.0572 9.22644L40.6318 8.47632C39.4316 8.07626 38.5315 7.52617 37.9814 6.77606C37.4445 6.0817 37.1542 5.22835 37.1562 4.35068C37.1562 3.65057 37.3063 3.05048 37.6063 2.52539C37.9064 1.97531 38.3064 1.52524 38.7565 1.15018C39.3066 0.775121 39.8567 0.500078 40.5318 0.300046C41.1819 0.100015 41.882 0 42.6321 0C42.9821 0 43.3572 0.0250044 43.7573 0.0750122C44.1073 0.12502 44.4574 0.200031 44.8074 0.250039C45.1575 0.350054 45.4575 0.425066 45.7576 0.525082C46.0576 0.625097 46.2577 0.725113 46.4577 0.825128C46.6827 0.950148 46.8578 1.07517 46.9578 1.22519C47.0578 1.37521 47.1078 1.55024 47.1078 1.77528V2.5754C47.1078 2.92546 46.9828 3.10048 46.7327 3.10048C46.6077 3.10048 46.3827 3.02547 46.0826 2.90045C45.1575 2.47539 44.0823 2.25035 42.9071 2.25035C41.957 2.25035 41.2569 2.40037 40.6818 2.72542C40.1817 3.02547 39.9067 3.52555 39.9067 4.20065C39.9067 4.67573 40.0817 5.07579 40.4067 5.37584C40.7318 5.70089 41.3569 6.00094 42.232 6.30098L44.6074 7.0511C45.8076 7.40115 46.6577 7.95124 47.1828 8.65135C47.6829 9.32645 47.9329 10.1016 47.9329 10.9767C47.9329 11.6768 47.7829 12.3269 47.5079 12.902C47.2078 13.4521 46.8077 13.9522 46.2577 14.3522C45.7826 14.7773 45.1575 15.0773 44.4574 15.3024C43.7573 15.5274 42.9071 15.6274 42.082 15.6274M45.2075 23.7287C39.7316 27.7543 31.7804 29.9047 25.0043 29.9047C15.3778 29.9047 6.7515 26.3541 0.225487 20.4782C-0.299594 20.0031 0.17548 19.378 0.800577 19.7531C7.85167 23.8287 16.528 26.3041 25.5294 26.3041C31.6054 26.3041 38.2814 25.0539 44.4074 22.4035C45.3325 22.0284 46.1076 23.0536 45.2075 23.7287M47.5079 21.1533C46.7827 20.2281 42.8571 20.7032 41.0819 20.9033C40.5568 20.9783 40.4818 20.5032 40.9568 20.1531C44.0823 17.9778 49.2331 18.6529 49.8082 19.328C50.4083 20.0781 49.6582 25.2289 46.7327 27.6793C46.2577 28.0544 45.8326 27.8543 46.0326 27.4043C46.7077 25.704 48.183 22.0034 47.5079 21.1533V21.1533Z" fill="white"/>
</svg>
