<svg width="100" height="60" viewBox="0 0 100 60" fill="none" xmlns="http://www.w3.org/2000/svg">
<path d="M28.2053 21.7034C28.2053 22.9536 28.3053 23.9537 28.5554 24.8039C28.8054 25.404 29.1554 26.2041 29.6055 27.1042C29.8055 27.3043 29.8556 27.6043 29.8556 27.8543C29.8556 28.2044 29.6555 28.5044 29.2055 28.8545L27.1051 30.2547C26.8051 30.4547 26.505 30.5548 26.255 30.5548C25.9049 30.5548 25.6049 30.3547 25.2548 30.0547C24.8048 29.5546 24.4047 29.0545 24.0547 28.5044C23.7546 27.9544 23.4046 27.3043 23.0545 26.5541C20.4541 29.6046 17.2036 31.1549 13.253 31.1549C10.4525 31.1549 8.25219 30.3547 6.60193 28.7545C5.00168 27.1542 4.15155 25.0039 4.15155 22.3035C4.15155 19.553 5.15171 17.3027 7.15202 15.5024C9.20234 13.8022 11.9028 12.902 15.3033 12.902C16.4535 12.902 17.5036 13.002 18.8538 13.2021C20.004 13.3521 21.3542 13.6021 22.6544 13.9022V11.5018C22.6544 8.95139 22.1544 7.30114 21.1042 6.15096C20.004 5.10079 18.2537 4.65072 15.7033 4.65072C14.5032 4.65072 13.303 4.80075 12.1028 5.05079C10.8526 5.35083 9.65241 5.70089 8.50223 6.20097C7.95214 6.401 7.50207 6.55102 7.35205 6.60103C7.10201 6.70104 6.95199 6.70104 6.80196 6.70104C6.35189 6.70104 6.10186 6.401 6.10186 5.70089V4.05063C6.10186 3.55055 6.15186 3.15049 6.35189 2.90045C6.50192 2.65041 6.80196 2.45038 7.25203 2.30036C8.45222 1.60025 9.80243 1.10017 11.4527 0.700108C13.1491 0.250388 14.8985 0.0317152 16.6535 0.0500089C20.6041 0.0500089 23.5046 0.950149 25.3549 2.75043C27.2051 4.55071 28.1053 7.30113 28.1053 10.9517V21.7034H28.2053M14.7032 26.8042C15.8034 26.8042 16.9035 26.6041 18.1037 26.2041C19.3039 25.804 20.3541 25.0539 21.2542 24.0537C21.8043 23.4036 22.2044 22.7035 22.5044 21.9034C22.5044 21.1033 22.7545 20.1531 22.7545 19.003V17.6527C21.7543 17.3027 20.7541 17.3027 19.654 17.0527C18.624 16.9394 17.5895 16.8726 16.5535 16.8526C14.3031 16.8526 12.7029 17.3027 11.6027 18.2028C10.5025 19.103 10.0025 20.3532 10.0025 22.0034C10.0025 23.6037 10.3525 24.8039 11.2026 25.554C12.0028 26.4041 13.153 26.8042 14.7032 26.8042M41.4074 30.3547C40.9229 30.3733 40.4415 30.2702 40.0071 30.0547C39.8571 29.8046 39.6071 29.3546 39.407 28.7545L31.6058 3.05048C31.4058 2.30036 31.3058 1.9503 31.3058 1.70027C31.3058 1.15018 31.5558 0.850133 32.1059 0.850133H35.3564C36.0065 0.850133 36.4566 0.950149 36.6566 1.20019C36.9567 1.40022 37.1567 1.85029 37.3567 2.50039L42.9076 24.5038L48.1084 2.50039C48.2584 1.85029 48.4585 1.40022 48.7585 1.20019C49.0085 1.00016 49.4586 0.850133 50.0087 0.850133H52.7591C53.3592 0.850133 53.8093 0.950149 54.0593 1.20019C54.3094 1.40022 54.5594 1.85029 54.7094 2.50039L60.0103 24.8039L65.7111 2.50039C65.9112 1.85029 66.1612 1.40022 66.3612 1.20019C66.6613 1.00016 67.0613 0.850133 67.6614 0.850133H70.7619C71.312 0.850133 71.6121 1.15018 71.6121 1.70027C71.6121 1.85029 71.562 2.05032 71.512 2.30036C71.512 2.30036 71.412 2.70042 71.312 3.05048L63.2608 28.7545C63.0607 29.4546 62.8607 29.8046 62.5106 30.0547C62.3106 30.2547 61.8605 30.4047 61.3105 30.4047H58.46C57.8099 30.4047 57.5099 30.3047 57.1098 30.0547C56.7735 29.6982 56.5628 29.2417 56.5097 28.7545L51.3589 7.30114L46.2081 28.7045C46.0581 29.3546 45.858 29.8046 45.608 30.0547C45.1961 30.2823 44.7273 30.3864 44.2578 30.3547H41.4074M84.164 31.2549C82.5138 31.2549 80.6635 31.0548 79.0132 30.6548C77.3629 30.2547 76.0628 29.8046 75.2126 29.3546C74.7777 29.1466 74.4127 28.8165 74.1625 28.4044C74.0252 28.1246 73.9566 27.816 73.9624 27.5043V25.804C73.9624 25.1039 74.2125 24.8039 74.7125 24.8039H75.3126C75.5127 24.8039 75.8127 25.0539 76.1628 25.2039C77.2629 25.704 78.5131 26.1041 79.8133 26.3541C81.1635 26.6041 82.5138 26.7542 83.7639 26.7542C85.8643 26.7542 87.5145 26.4041 88.6147 25.654C89.7649 24.8039 90.365 23.8537 90.365 22.5035C90.365 21.5534 90.0149 20.8032 89.4648 20.1531C88.8647 19.553 87.7146 18.9529 86.1143 18.4529L81.2636 16.9526C78.8632 16.1525 77.0629 15.0523 75.9627 13.5521C74.8891 12.1634 74.3085 10.4567 74.3125 8.70136C74.3125 7.30114 74.6125 6.10095 75.2126 5.05079C75.8127 3.95062 76.6128 3.05048 77.513 2.30036C78.6131 1.55024 79.7133 1.00016 81.0635 0.600093C82.3637 0.200031 83.7639 0 85.2642 0C85.9643 0 86.7144 0.0500088 87.5145 0.150024C88.2146 0.25004 88.9148 0.400062 89.6149 0.500077C90.315 0.700109 90.9151 0.850133 91.5152 1.05016C92.1152 1.25019 92.5153 1.45023 92.9154 1.65026C93.3654 1.9003 93.7155 2.15034 93.9155 2.45038C94.1156 2.75043 94.2156 3.10048 94.2156 3.55055V5.1508C94.2156 5.85091 93.9655 6.20097 93.4655 6.20097C93.2154 6.20097 92.7654 6.05094 92.1653 5.8009C90.315 4.95077 88.1646 4.5007 85.8143 4.5007C83.914 4.5007 82.5138 4.80075 81.3636 5.45085C80.3634 6.05094 79.8133 7.0511 79.8133 8.40131C79.8133 9.35146 80.1634 10.1516 80.8135 10.7517C81.4636 11.4018 82.7138 12.0019 84.4641 12.602L89.2148 14.1022C91.6152 14.8023 93.3154 15.9025 94.3656 17.3027C95.3658 18.6529 95.8658 20.2031 95.8658 21.9534C95.8658 23.3536 95.5658 24.6538 95.0157 25.804C94.4156 26.9042 93.6155 27.9043 92.5153 28.7045C91.5652 29.5546 90.315 30.1547 88.9148 30.6048C87.5145 31.0548 85.8143 31.2549 84.164 31.2549M90.415 47.4574C79.4633 55.5086 63.5608 59.8093 50.0087 59.8093C30.7557 59.8093 13.503 52.7082 0.450975 40.9564C-0.599189 40.0062 0.350959 38.756 1.60115 39.5061C15.7033 47.6574 33.0561 52.6082 51.0589 52.6082C63.2107 52.6082 76.5628 50.1078 88.8147 44.807C90.665 44.0569 92.2153 46.1072 90.415 47.4574M95.0157 42.3066C93.5655 40.4563 85.7143 41.4064 82.1637 41.8065C81.1135 41.9565 80.9635 41.0064 81.9137 40.3063C88.1646 35.9556 98.4662 37.3058 99.6164 38.656C100.817 40.1563 99.3164 50.4579 93.4655 55.3586C92.5153 56.1087 91.6652 55.7087 92.0652 54.8085C93.4155 51.408 96.3659 44.0069 95.0157 42.3066V42.3066Z" fill="black"/>
</svg>
